<?xml version="1.0" encoding="iso-8859-1"?>
<!-- Generator: Adobe Illustrator 18.0.0, SVG Export Plug-In . SVG Version: 6.00 Build 0)  -->
<!DOCTYPE svg PUBLIC "-//W3C//DTD SVG 1.1//EN" "http://www.w3.org/Graphics/SVG/1.1/DTD/svg11.dtd">
<svg version="1.1" id="Capa_1" xmlns="http://www.w3.org/2000/svg" xmlns:xlink="http://www.w3.org/1999/xlink" x="0px" y="0px"
	 viewBox="0 0 72.369 72.369" style="enable-background:new 0 0 72.369 72.369;" xml:space="preserve">
<path style="fill:#231F20;" d="M45.016,22.917H30.959c-2.006,0-3.638,1.632-3.638,3.638s1.632,3.638,3.638,3.638h14.057
	c2.007,0,3.639-1.632,3.639-3.638S47.022,22.917,45.016,22.917z M45.016,28.193H30.959c-0.903,0-1.638-0.735-1.638-1.638
	s0.734-1.638,1.638-1.638h14.057c0.903,0,1.639,0.735,1.639,1.638S45.919,28.193,45.016,28.193z M22.228,9.628
	C23.276,2.97,28.137,0,37.988,0c9.425,0,14.837,3.227,16.086,9.592c0.106,0.542-0.247,1.067-0.789,1.174
	c-0.064,0.013-0.13,0.019-0.193,0.019c-0.469,0-0.887-0.331-0.98-0.808C51.059,4.609,46.438,2,37.988,2
	C26.973,2,24.853,5.816,24.204,9.94c-0.087,0.545-0.599,0.915-1.144,0.832C22.515,10.686,22.142,10.174,22.228,9.628z
	 M69.361,55.607c-0.637-0.641-1.545-1.037-2.727-1.216c-0.127-0.818-0.321-1.603-0.547-2.369V31.965c0-0.552-0.447-1-1-1
	s-1,0.448-1,1v15.553c-1.488-2.44-3.452-4.499-5.593-6.163l0.273-1.038c0.141-0.534-0.179-1.081-0.713-1.222
	c-0.526-0.139-1.081,0.178-1.221,0.713l-0.078,0.297c-1.457-0.956-2.951-1.739-4.4-2.34v-6.758c1.113-0.575,3.652-2.349,3.529-6.535
	c-0.021-0.669-0.08-2.707-1.56-3.281c-0.68-0.265-1.376-0.088-1.97,0.208v-1.03l2.526-1.541c0.472-0.288,0.621-0.903,0.333-1.374
	c-0.288-0.472-0.904-0.622-1.374-0.333l-1.485,0.906v-2.387c0-3.924-3.655-6.856-6.923-6.856H30.542
	c-3.946,0-6.923,2.948-6.923,6.856v2.394l-1.496-0.913c-0.47-0.289-1.086-0.139-1.374,0.333c-0.288,0.471-0.139,1.086,0.333,1.374
	l2.537,1.548v0.961c-0.55-0.273-1.193-0.432-1.832-0.19c-1.477,0.558-1.537,2.641-1.558,3.325c-0.124,4.196,2.331,5.97,3.39,6.538
	v6.818c-1.512,0.637-2.937,1.402-4.26,2.276l-0.078-0.296c-0.14-0.535-0.688-0.854-1.221-0.713
	c-0.534,0.141-0.854,0.687-0.713,1.221l0.276,1.05c-3.905,3.082-6.697,7.155-7.817,11.559v-3.634c0-0.552-0.447-1-1-1H8.299l0-9.179
	c0,0,0-0.001,0-0.002s0-0.001,0-0.002L8.298,26.521c-0.027-0.832,0.116-3.435,1.101-4.452c0.261-0.27,0.555-0.395,0.927-0.395
	c0.553,0,1-0.448,1-1s-0.447-1-1-1c-0.912,0-1.731,0.348-2.367,1.007c-1.75,1.813-1.673,5.495-1.659,5.874v11.556H4.872v-0.938
	H3.266v3.875h1.606v-0.937h1.427v8.181H5.79c-0.553,0-1,0.448-1,1v5.299c-0.732,0.221-1.326,0.556-1.782,1.015
	c-1.194,1.201-1.186,2.886-1.177,4.373l0.001,6.939c0,3.005,2.445,5.45,5.45,5.45s5.45-2.445,5.45-5.45l0.001-6.939
	c0.009-1.487,0.018-3.172-1.177-4.373c-0.053-0.053-0.126-0.09-0.182-0.14c0.527-4.486,3.015-8.753,6.806-11.983l2.046,7.786v19.403
	c0,0.552,0.447,1,1,1s1-0.448,1-1V52.143h1.394V53.8c0,3.859,3.141,7,7,7h14.737c3.859,0,6.999-3.14,6.999-7v-1.657h1.532v18.531
	c0,0.552,0.447,1,1,1s1-0.448,1-1V51.271l2.052-7.807c2.701,2.258,5.007,5.224,6.147,8.839v2.029
	c-1.452,0.13-2.544,0.54-3.274,1.275c-1.194,1.201-1.186,2.886-1.177,4.373l0.001,6.939c0,3.005,2.445,5.45,5.45,5.45
	s5.45-2.445,5.45-5.45l0.001-6.939C70.547,58.493,70.556,56.808,69.361,55.607z M6.79,50.292h1.017v3.314H6.79V50.292z
	 M7.282,70.369c-1.902,0-3.45-1.548-3.45-3.45l-0.001-6.95c-0.007-1.204-0.013-2.34,0.595-2.952
	c0.491-0.494,1.452-0.745,2.856-0.745s2.365,0.25,2.856,0.745c0.406,0.409,0.536,1.054,0.577,1.795H8.391c-0.553,0-1,0.448-1,1
	s0.447,1,1,1h2.343l0,1.822H8.391c-0.553,0-1,0.448-1,1s0.447,1,1,1h2.342l0,1.688H8.391c-0.553,0-1,0.448-1,1s0.447,1,1,1h2.037
	C9.888,69.525,8.684,70.369,7.282,70.369z M22.229,24.531c0.033-1.155,0.256-1.477,0.242-1.504c0.209,0.007,0.759,0.375,1.105,0.741
	c0.012,0.013,0.029,0.018,0.042,0.03v4.74C22.917,27.833,22.169,26.596,22.229,24.531z M21.996,50.143l-2.098-7.984
	c1.153-0.809,2.397-1.529,3.72-2.142v10.126H21.996z M53.577,23.043c0.003,0.002,0.271,0.264,0.308,1.488
	c0.062,2.112-0.772,3.362-1.529,4.057v-4.746C52.764,23.431,53.353,23.028,53.577,23.043z M50.355,53.8c0,2.757-2.242,5-4.999,5
	H30.619c-2.757,0-5-2.243-5-5v-38.16c0-2.769,2.116-4.856,4.923-4.856h14.891c2.007,0,4.923,1.892,4.923,4.856V53.8z M54.117,50.143
	h-1.761V39.949c1.286,0.588,2.594,1.326,3.861,2.206L54.117,50.143z M68.538,59.969l-0.001,6.95c0,1.902-1.548,3.45-3.45,3.45
	c-1.402,0-2.606-0.844-3.145-2.047h2.037c0.553,0,1-0.448,1-1s-0.447-1-1-1h-2.342l0-1.688h2.342c0.553,0,1-0.448,1-1s-0.447-1-1-1
	h-2.342l0-1.822h2.343c0.553,0,1-0.448,1-1s-0.447-1-1-1h-2.325c0.041-0.741,0.171-1.386,0.577-1.795
	c0.491-0.494,1.452-0.745,2.856-0.745s2.365,0.25,2.856,0.745C68.551,57.628,68.545,58.765,68.538,59.969z M47.085,65.924
	c0,0.552-0.447,1-1,1H30.029c-0.553,0-1-0.448-1-1s0.447-1,1-1h16.056C46.638,64.924,47.085,65.372,47.085,65.924z"/>
<g>
</g>
<g>
</g>
<g>
</g>
<g>
</g>
<g>
</g>
<g>
</g>
<g>
</g>
<g>
</g>
<g>
</g>
<g>
</g>
<g>
</g>
<g>
</g>
<g>
</g>
<g>
</g>
<g>
</g>
</svg>
